<svg width="40" height="40" viewBox="0 0 40 40" fill="none" xmlns="http://www.w3.org/2000/svg">
<g clip-path="url(#clip0_2_10)">
<g filter="url(#filter0_d_2_10)">
<path d="M20.6957 3.47826C30.2046 3.47826 37.9131 11.1867 37.9131 20.6957C37.9131 30.2046 30.2046 37.913 20.6957 37.913C11.1868 37.913 3.47827 30.2046 3.47827 20.6957C3.47827 11.1867 11.1868 3.47826 20.6957 3.47826ZM28.2066 16.3913C28.1981 16.3914 28.1883 16.3915 28.1773 16.3917C28.1553 16.392 28.1283 16.3929 28.0965 16.394C28.0327 16.3962 27.9494 16.4001 27.8482 16.4073C27.6456 16.4216 27.3701 16.4486 27.0336 16.5C26.3613 16.6027 25.4405 16.8031 24.3669 17.1936C22.2757 17.9543 19.6323 19.4277 17.1444 22.2517L16.9042 22.5292C15.4078 24.2882 14.4059 26.5447 13.7908 28.2347C13.7678 28.2979 13.7453 28.3608 13.7232 28.4229C13.5312 28.2322 13.345 28.029 13.1675 27.8152C12.4393 26.9384 12.0114 26.0813 11.8655 25.5486L11.84 25.4467L11.8135 25.339C11.5108 24.2414 10.3968 23.5626 9.27278 23.8122C8.14871 24.0617 7.42669 25.1481 7.61685 26.2707L7.63827 26.3794L7.6685 26.5098C7.999 27.8605 8.82634 29.3254 9.85598 30.5652C10.9324 31.8614 12.4111 33.1309 14.1729 33.8196L14.2836 33.8597C14.8408 34.0431 15.4509 33.9914 15.9711 33.7133C16.4913 33.4352 16.8725 32.9566 17.0296 32.3917L17.0581 32.2775C17.0583 32.2768 17.0589 32.276 17.0591 32.2748C17.0603 32.2694 17.0626 32.2594 17.0659 32.2453C17.0725 32.2167 17.0835 32.1707 17.0985 32.1094C17.1287 31.9865 17.1757 31.8017 17.2401 31.5686C17.3695 31.1008 17.5669 30.4453 17.8356 29.7069C18.3893 28.1855 19.1808 26.4964 20.1828 25.3186L20.3723 25.0995C22.3334 22.8728 24.3467 21.7809 25.838 21.2384C26.6133 20.9565 27.2555 20.8205 27.6838 20.7551C27.8976 20.7224 28.0572 20.7074 28.1518 20.7007C28.199 20.6974 28.23 20.6961 28.2432 20.6957H28.2303L28.23 20.6953C29.4178 20.6944 30.3804 19.7315 30.3805 18.5435C30.3805 17.3549 29.4169 16.3913 28.2283 16.3913V18.4327C28.2282 16.3913 28.227 16.3913 28.2259 16.3913H28.2066ZM17.0581 32.2785L17.0584 32.2782C17.0584 32.2782 17.0584 32.2776 17.0581 32.2775C17.058 32.2778 17.0581 32.2783 17.0581 32.2785Z" fill="url(#paint0_linear_2_10)"/>
</g>
</g>
<defs>
<filter id="filter0_d_2_10" x="-0.507236" y="-0.507247" width="40.8116" height="40.8116" filterUnits="userSpaceOnUse" color-interpolation-filters="sRGB">
<feFlood flood-opacity="0" result="BackgroundImageFix"/>
<feColorMatrix in="SourceAlpha" type="matrix" values="0 0 0 0 0 0 0 0 0 0 0 0 0 0 0 0 0 0 127 0" result="hardAlpha"/>
<feOffset dx="-0.797101" dy="-0.797101"/>
<feGaussianBlur stdDeviation="1.5942"/>
<feComposite in2="hardAlpha" operator="out"/>
<feColorMatrix type="matrix" values="0 0 0 0 1 0 0 0 0 1 0 0 0 0 1 0 0 0 0.15 0"/>
<feBlend mode="normal" in2="BackgroundImageFix" result="effect1_dropShadow_2_10"/>
<feBlend mode="normal" in="SourceGraphic" in2="effect1_dropShadow_2_10" result="shape"/>
</filter>
<linearGradient id="paint0_linear_2_10" x1="8.00001" y1="20.8696" x2="20.6957" y2="37.913" gradientUnits="userSpaceOnUse">
<stop stop-color="#171717"/>
<stop offset="1" stop-color="#171717" stop-opacity="0.7"/>
</linearGradient>
<clipPath id="clip0_2_10">
<rect width="40" height="40" fill="white"/>
</clipPath>
</defs>
</svg>
